<?xml version="1.0" standalone="no"?>
<!DOCTYPE svg PUBLIC "-//W3C//DTD SVG 20010904//EN"
 "http://www.w3.org/TR/2001/REC-SVG-20010904/DTD/svg10.dtd">
<svg version="1.0" xmlns="http://www.w3.org/2000/svg"
 width="516.000000pt" height="516.000000pt" viewBox="0 0 516.000000 516.000000"
 preserveAspectRatio="xMidYMid meet">
<metadata>
Created by potrace 1.14, written by Peter Selinger 2001-2017
</metadata>
<g transform="translate(0.000000,516.000000) scale(0.100000,-0.100000)"
fill="#000000" stroke="none">
<path d="M1412 4934 c-156 -36 -292 -171 -328 -324 -14 -59 -12 -3136 2 -3197
19 -83 53 -143 118 -209 66 -66 141 -107 221 -121 28 -5 750 -8 1605 -8 1231
1 1563 4 1595 14 143 45 242 137 295 276 l23 60 1 1555 c1 855 -2 1579 -7
1609 -23 155 -169 309 -327 347 -55 13 -3142 11 -3198 -2z m2984 -445 c58 -30
101 -86 112 -149 4 -25 7 -634 7 -1355 -1 -1443 3 -1346 -63 -1414 -66 -69 36
-65 -1422 -66 -964 -1 -1328 2 -1362 10 -63 16 -110 54 -139 112 l-23 48 0
1335 -1 1335 24 48 c27 56 76 96 135 111 29 8 451 11 1362 11 l1320 0 50 -26z"/>
<path d="M2080 4072 c-85 -29 -158 -139 -144 -219 14 -84 23 -94 397 -471
l372 -372 -372 -373 c-379 -380 -389 -392 -398 -475 -1 -14 4 -48 11 -74 34
-113 152 -175 268 -141 47 14 77 41 424 386 l372 371 373 -371 c385 -383 393
-390 480 -397 76 -7 175 56 201 127 23 63 25 97 9 152 -14 46 -43 78 -386 423
l-372 372 372 373 c378 379 385 388 396 472 6 41 -16 109 -47 149 -32 43 -106
79 -160 79 -95 0 -98 -2 -494 -396 l-372 -371 -373 371 c-387 386 -397 394
-483 398 -17 0 -50 -5 -74 -13z"/>
<path d="M380 4076 c-62 -16 -114 -58 -142 -114 l-23 -47 0 -1650 c0 -907 3
-1672 8 -1699 27 -154 171 -305 327 -342 45 -10 3301 -12 3360 -2 88 16 164
96 173 183 9 88 -42 178 -121 217 l-47 23 -1550 1 c-1202 1 -1557 4 -1580 13
-52 21 -92 59 -116 108 l-23 48 -1 1550 0 1550 -24 48 c-25 52 -83 102 -129
112 -58 12 -68 12 -112 1z"/>
</g>
</svg>
